<svg id="visual" viewBox="0 0 900 600" width="900" height="600" xmlns="http://www.w3.org/2000/svg" xmlns:xlink="http://www.w3.org/1999/xlink" version="1.1"><g stroke-width="1" stroke-linejoin="bevel"><path d="M339 284L348 155L203 140Z" fill="#d5f1db" stroke="#d5f1db"></path><path d="M203 140L184 281L339 284Z" fill="#aae3b7" stroke="#aae3b7"></path><path d="M530 141L367 0L348 155Z" fill="#d5f1db" stroke="#d5f1db"></path><path d="M348 155L367 0L203 140Z" fill="#aae3b7" stroke="#aae3b7"></path><path d="M367 0L168 0L203 140Z" fill="#94dba5" stroke="#94dba5"></path><path d="M203 140L0 155L184 281Z" fill="#62cc83" stroke="#62cc83"></path><path d="M0 284L181 446L184 281Z" fill="#ffffff" stroke="#ffffff"></path><path d="M184 281L181 446L339 284Z" fill="#aae3b7" stroke="#aae3b7"></path><path d="M562 306L530 141L339 284Z" fill="#d5f1db" stroke="#d5f1db"></path><path d="M339 284L530 141L348 155Z" fill="#7cd494" stroke="#7cd494"></path><path d="M168 0L0 155L203 140Z" fill="#01bc61" stroke="#01bc61"></path><path d="M181 446L360 475L339 284Z" fill="#ffffff" stroke="#ffffff"></path><path d="M0 155L0 284L184 281Z" fill="#d5f1db" stroke="#d5f1db"></path><path d="M556 435L562 306L339 284Z" fill="#eaf8ed" stroke="#eaf8ed"></path><path d="M692 126L521 0L530 141Z" fill="#d5f1db" stroke="#d5f1db"></path><path d="M530 141L521 0L367 0Z" fill="#c0eac9" stroke="#c0eac9"></path><path d="M168 0L0 0L0 155Z" fill="#d5f1db" stroke="#d5f1db"></path><path d="M360 475L556 435L339 284Z" fill="#42c472" stroke="#42c472"></path><path d="M0 284L0 463L181 446Z" fill="#7cd494" stroke="#7cd494"></path><path d="M181 446L205 600L360 475Z" fill="#94dba5" stroke="#94dba5"></path><path d="M0 600L205 600L181 446Z" fill="#01bc61" stroke="#01bc61"></path><path d="M360 475L517 600L556 435Z" fill="#eaf8ed" stroke="#eaf8ed"></path><path d="M205 600L385 600L360 475Z" fill="#94dba5" stroke="#94dba5"></path><path d="M562 306L692 126L530 141Z" fill="#7cd494" stroke="#7cd494"></path><path d="M739 316L692 126L562 306Z" fill="#01bc61" stroke="#01bc61"></path><path d="M385 600L517 600L360 475Z" fill="#7cd494" stroke="#7cd494"></path><path d="M556 435L739 316L562 306Z" fill="#94dba5" stroke="#94dba5"></path><path d="M0 463L0 600L181 446Z" fill="#94dba5" stroke="#94dba5"></path><path d="M714 472L739 316L556 435Z" fill="#d5f1db" stroke="#d5f1db"></path><path d="M900 140L725 0L692 126Z" fill="#42c472" stroke="#42c472"></path><path d="M692 126L725 0L521 0Z" fill="#01bc61" stroke="#01bc61"></path><path d="M517 600L714 472L556 435Z" fill="#d5f1db" stroke="#d5f1db"></path><path d="M517 600L726 600L714 472Z" fill="#94dba5" stroke="#94dba5"></path><path d="M900 290L900 140L739 316Z" fill="#c0eac9" stroke="#c0eac9"></path><path d="M739 316L900 140L692 126Z" fill="#7cd494" stroke="#7cd494"></path><path d="M900 290L739 316L900 461Z" fill="#01bc61" stroke="#01bc61"></path><path d="M900 461L739 316L714 472Z" fill="#c0eac9" stroke="#c0eac9"></path><path d="M900 140L900 0L725 0Z" fill="#62cc83" stroke="#62cc83"></path><path d="M726 600L900 461L714 472Z" fill="#ffffff" stroke="#ffffff"></path><path d="M726 600L900 600L900 461Z" fill="#aae3b7" stroke="#aae3b7"></path></g></svg>