<svg id="visual" viewBox="0 0 900 600" width="900" height="600" xmlns="http://www.w3.org/2000/svg" xmlns:xlink="http://www.w3.org/1999/xlink" version="1.1"><rect width="900" height="600" fill="#ffffff"></rect><g><g transform="translate(870 110)"><path d="M0 -120.8L104.6 -60.4L104.6 60.4L0 120.8L-104.6 60.4L-104.6 -60.4Z" fill="#01bc61"></path></g><g transform="translate(90 474)"><path d="M0 -95L82.3 -47.5L82.3 47.5L0 95L-82.3 47.5L-82.3 -47.5Z" fill="#01bc61"></path></g><g transform="translate(722 557)"><path d="M0 -44L38.1 -22L38.1 22L0 44L-38.1 22L-38.1 -22Z" fill="#01bc61"></path></g><g transform="translate(34 91)"><path d="M0 -90L77.9 -45L77.9 45L0 90L-77.9 45L-77.9 -45Z" fill="#01bc61"></path></g><g transform="translate(552 12)"><path d="M0 -58L50.2 -29L50.2 29L0 58L-50.2 29L-50.2 -29Z" fill="#01bc61"></path></g></g></svg>